<mxfile host="app.diagrams.net" modified="2023-10-31T15:17:07.344Z" agent="Mozilla/5.0 (X11; Ubuntu; Linux x86_64; rv:109.0) Gecko/20100101 Firefox/119.0" etag="jHW7zQFb9Z3lcZybkyoI" version="22.0.8" type="device">
  <diagram name="Page-1" id="dyxHwpCMVKbSeanMKnR7">
    <mxGraphModel dx="1062" dy="567" grid="1" gridSize="10" guides="1" tooltips="1" connect="1" arrows="1" fold="1" page="1" pageScale="1" pageWidth="850" pageHeight="1100" math="0" shadow="0">
      <root>
        <mxCell id="0" />
        <mxCell id="1" parent="0" />
        <mxCell id="VurgTooAVVLOMVtPALt_-1" value="" style="endArrow=none;html=1;rounded=0;hachureGap=4;fontFamily=Architects Daughter;fontSource=https%3A%2F%2Ffonts.googleapis.com%2Fcss%3Ffamily%3DArchitects%2BDaughter;fontSize=16;strokeWidth=2;" edge="1" parent="1">
          <mxGeometry width="50" height="50" relative="1" as="geometry">
            <mxPoint x="200" y="560" as="sourcePoint" />
            <mxPoint x="200" y="200" as="targetPoint" />
          </mxGeometry>
        </mxCell>
        <mxCell id="VurgTooAVVLOMVtPALt_-2" value="" style="endArrow=none;html=1;rounded=0;hachureGap=4;fontFamily=Architects Daughter;fontSource=https%3A%2F%2Ffonts.googleapis.com%2Fcss%3Ffamily%3DArchitects%2BDaughter;fontSize=16;strokeWidth=2;exitX=0.5;exitY=0;exitDx=0;exitDy=0;" edge="1" parent="1" source="VurgTooAVVLOMVtPALt_-44">
          <mxGeometry width="50" height="50" relative="1" as="geometry">
            <mxPoint x="400" y="430" as="sourcePoint" />
            <mxPoint x="400" y="200" as="targetPoint" />
          </mxGeometry>
        </mxCell>
        <mxCell id="VurgTooAVVLOMVtPALt_-3" value="" style="endArrow=none;html=1;rounded=0;hachureGap=4;fontFamily=Architects Daughter;fontSource=https%3A%2F%2Ffonts.googleapis.com%2Fcss%3Ffamily%3DArchitects%2BDaughter;fontSize=16;strokeWidth=2;" edge="1" parent="1">
          <mxGeometry width="50" height="50" relative="1" as="geometry">
            <mxPoint x="600" y="560" as="sourcePoint" />
            <mxPoint x="600" y="200" as="targetPoint" />
          </mxGeometry>
        </mxCell>
        <mxCell id="VurgTooAVVLOMVtPALt_-4" value="" style="endArrow=classic;html=1;rounded=0;hachureGap=4;fontFamily=Architects Daughter;fontSource=https%3A%2F%2Ffonts.googleapis.com%2Fcss%3Ffamily%3DArchitects%2BDaughter;fontSize=16;strokeWidth=2;" edge="1" parent="1">
          <mxGeometry width="50" height="50" relative="1" as="geometry">
            <mxPoint x="200" y="240" as="sourcePoint" />
            <mxPoint x="400" y="240" as="targetPoint" />
          </mxGeometry>
        </mxCell>
        <mxCell id="VurgTooAVVLOMVtPALt_-5" value="" style="endArrow=classic;html=1;rounded=0;hachureGap=4;fontFamily=Architects Daughter;fontSource=https%3A%2F%2Ffonts.googleapis.com%2Fcss%3Ffamily%3DArchitects%2BDaughter;fontSize=16;strokeWidth=2;" edge="1" parent="1">
          <mxGeometry width="50" height="50" relative="1" as="geometry">
            <mxPoint x="400" y="280" as="sourcePoint" />
            <mxPoint x="600" y="280" as="targetPoint" />
          </mxGeometry>
        </mxCell>
        <mxCell id="VurgTooAVVLOMVtPALt_-6" value="" style="endArrow=none;html=1;rounded=0;hachureGap=4;fontFamily=Architects Daughter;fontSource=https%3A%2F%2Ffonts.googleapis.com%2Fcss%3Ffamily%3DArchitects%2BDaughter;fontSize=16;startArrow=classic;startFill=1;endFill=0;strokeWidth=2;" edge="1" parent="1">
          <mxGeometry width="50" height="50" relative="1" as="geometry">
            <mxPoint x="200" y="520" as="sourcePoint" />
            <mxPoint x="600" y="520" as="targetPoint" />
          </mxGeometry>
        </mxCell>
        <mxCell id="VurgTooAVVLOMVtPALt_-7" value="" style="endArrow=classic;html=1;rounded=0;hachureGap=4;fontFamily=Architects Daughter;fontSource=https%3A%2F%2Ffonts.googleapis.com%2Fcss%3Ffamily%3DArchitects%2BDaughter;fontSize=16;strokeWidth=2;" edge="1" parent="1">
          <mxGeometry width="50" height="50" relative="1" as="geometry">
            <mxPoint x="200" y="400" as="sourcePoint" />
            <mxPoint x="400" y="400" as="targetPoint" />
          </mxGeometry>
        </mxCell>
        <mxCell id="VurgTooAVVLOMVtPALt_-8" value="" style="endArrow=none;html=1;rounded=0;hachureGap=4;fontFamily=Architects Daughter;fontSource=https%3A%2F%2Ffonts.googleapis.com%2Fcss%3Ffamily%3DArchitects%2BDaughter;fontSize=16;startArrow=classic;startFill=1;endFill=0;strokeWidth=2;" edge="1" parent="1">
          <mxGeometry width="50" height="50" relative="1" as="geometry">
            <mxPoint x="200" y="360" as="sourcePoint" />
            <mxPoint x="400" y="360" as="targetPoint" />
          </mxGeometry>
        </mxCell>
        <mxCell id="VurgTooAVVLOMVtPALt_-9" value="" style="endArrow=classic;html=1;rounded=0;hachureGap=4;fontFamily=Architects Daughter;fontSource=https%3A%2F%2Ffonts.googleapis.com%2Fcss%3Ffamily%3DArchitects%2BDaughter;fontSize=16;strokeWidth=2;" edge="1" parent="1">
          <mxGeometry width="50" height="50" relative="1" as="geometry">
            <mxPoint x="200" y="440" as="sourcePoint" />
            <mxPoint x="600" y="440" as="targetPoint" />
          </mxGeometry>
        </mxCell>
        <mxCell id="VurgTooAVVLOMVtPALt_-10" value="" style="endArrow=none;html=1;rounded=0;hachureGap=4;fontFamily=Architects Daughter;fontSource=https%3A%2F%2Ffonts.googleapis.com%2Fcss%3Ffamily%3DArchitects%2BDaughter;fontSize=16;strokeWidth=2;exitX=0.5;exitY=0;exitDx=0;exitDy=0;" edge="1" parent="1" source="VurgTooAVVLOMVtPALt_-48">
          <mxGeometry width="50" height="50" relative="1" as="geometry">
            <mxPoint x="400" y="510" as="sourcePoint" />
            <mxPoint x="400" y="450" as="targetPoint" />
          </mxGeometry>
        </mxCell>
        <mxCell id="VurgTooAVVLOMVtPALt_-11" value="" style="endArrow=classic;html=1;rounded=0;hachureGap=4;fontFamily=Architects Daughter;fontSource=https%3A%2F%2Ffonts.googleapis.com%2Fcss%3Ffamily%3DArchitects%2BDaughter;fontSize=16;strokeWidth=2;" edge="1" parent="1">
          <mxGeometry width="50" height="50" relative="1" as="geometry">
            <mxPoint x="400" y="480" as="sourcePoint" />
            <mxPoint x="600" y="480" as="targetPoint" />
          </mxGeometry>
        </mxCell>
        <mxCell id="VurgTooAVVLOMVtPALt_-12" value="" style="endArrow=none;html=1;rounded=0;hachureGap=4;fontFamily=Architects Daughter;fontSource=https%3A%2F%2Ffonts.googleapis.com%2Fcss%3Ffamily%3DArchitects%2BDaughter;fontSize=16;startArrow=classic;startFill=1;endFill=0;strokeWidth=2;" edge="1" parent="1">
          <mxGeometry width="50" height="50" relative="1" as="geometry">
            <mxPoint x="400" y="320" as="sourcePoint" />
            <mxPoint x="600" y="320" as="targetPoint" />
          </mxGeometry>
        </mxCell>
        <mxCell id="VurgTooAVVLOMVtPALt_-13" value="" style="endArrow=none;html=1;rounded=0;hachureGap=4;fontFamily=Architects Daughter;fontSource=https%3A%2F%2Ffonts.googleapis.com%2Fcss%3Ffamily%3DArchitects%2BDaughter;fontSize=16;strokeWidth=2;" edge="1" parent="1">
          <mxGeometry width="50" height="50" relative="1" as="geometry">
            <mxPoint x="400" y="560" as="sourcePoint" />
            <mxPoint x="400" y="530" as="targetPoint" />
          </mxGeometry>
        </mxCell>
        <mxCell id="VurgTooAVVLOMVtPALt_-15" value="" style="pointerEvents=1;shadow=0;dashed=0;html=1;strokeColor=none;fillColor=#000000;labelPosition=center;verticalLabelPosition=bottom;verticalAlign=top;outlineConnect=0;align=center;shape=mxgraph.office.devices.cell_phone_generic;hachureGap=4;fontFamily=Architects Daughter;fontSource=https%3A%2F%2Ffonts.googleapis.com%2Fcss%3Ffamily%3DArchitects%2BDaughter;fontSize=20;rotation=0;" vertex="1" parent="1">
          <mxGeometry x="190" y="120" width="20" height="40" as="geometry" />
        </mxCell>
        <mxCell id="VurgTooAVVLOMVtPALt_-17" value="" style="image;points=[];aspect=fixed;html=1;align=center;shadow=0;dashed=0;image=img/lib/allied_telesis/computer_and_terminals/Server_Desktop.svg;hachureGap=4;fontFamily=Architects Daughter;fontSource=https%3A%2F%2Ffonts.googleapis.com%2Fcss%3Ffamily%3DArchitects%2BDaughter;fontSize=20;" vertex="1" parent="1">
          <mxGeometry x="580" y="113" width="40" height="50.7" as="geometry" />
        </mxCell>
        <mxCell id="VurgTooAVVLOMVtPALt_-35" value="" style="group;" vertex="1" connectable="0" parent="1">
          <mxGeometry x="360" y="120" width="80" height="40" as="geometry" />
        </mxCell>
        <mxCell id="VurgTooAVVLOMVtPALt_-18" value="" style="ellipse;whiteSpace=wrap;html=1;aspect=fixed;hachureGap=4;fontFamily=Architects Daughter;fontSource=https%3A%2F%2Ffonts.googleapis.com%2Fcss%3Ffamily%3DArchitects%2BDaughter;fontSize=20;shadow=0;" vertex="1" parent="VurgTooAVVLOMVtPALt_-35">
          <mxGeometry y="10" width="10" height="10" as="geometry" />
        </mxCell>
        <mxCell id="VurgTooAVVLOMVtPALt_-20" value="" style="ellipse;whiteSpace=wrap;html=1;aspect=fixed;hachureGap=4;fontFamily=Architects Daughter;fontSource=https%3A%2F%2Ffonts.googleapis.com%2Fcss%3Ffamily%3DArchitects%2BDaughter;fontSize=20;shadow=0;" vertex="1" parent="VurgTooAVVLOMVtPALt_-35">
          <mxGeometry x="20" width="10" height="10" as="geometry" />
        </mxCell>
        <mxCell id="VurgTooAVVLOMVtPALt_-21" value="" style="ellipse;whiteSpace=wrap;html=1;aspect=fixed;hachureGap=4;fontFamily=Architects Daughter;fontSource=https%3A%2F%2Ffonts.googleapis.com%2Fcss%3Ffamily%3DArchitects%2BDaughter;fontSize=20;shadow=0;" vertex="1" parent="VurgTooAVVLOMVtPALt_-35">
          <mxGeometry x="50" width="10" height="10" as="geometry" />
        </mxCell>
        <mxCell id="VurgTooAVVLOMVtPALt_-22" value="" style="ellipse;whiteSpace=wrap;html=1;aspect=fixed;hachureGap=4;fontFamily=Architects Daughter;fontSource=https%3A%2F%2Ffonts.googleapis.com%2Fcss%3Ffamily%3DArchitects%2BDaughter;fontSize=20;shadow=0;" vertex="1" parent="VurgTooAVVLOMVtPALt_-35">
          <mxGeometry x="39" y="19" width="10" height="10" as="geometry" />
        </mxCell>
        <mxCell id="VurgTooAVVLOMVtPALt_-23" value="" style="ellipse;whiteSpace=wrap;html=1;aspect=fixed;hachureGap=4;fontFamily=Architects Daughter;fontSource=https%3A%2F%2Ffonts.googleapis.com%2Fcss%3Ffamily%3DArchitects%2BDaughter;fontSize=20;shadow=0;" vertex="1" parent="VurgTooAVVLOMVtPALt_-35">
          <mxGeometry x="10" y="30" width="10" height="10" as="geometry" />
        </mxCell>
        <mxCell id="VurgTooAVVLOMVtPALt_-24" value="" style="ellipse;whiteSpace=wrap;html=1;aspect=fixed;hachureGap=4;fontFamily=Architects Daughter;fontSource=https%3A%2F%2Ffonts.googleapis.com%2Fcss%3Ffamily%3DArchitects%2BDaughter;fontSize=20;shadow=0;" vertex="1" parent="VurgTooAVVLOMVtPALt_-35">
          <mxGeometry x="70" y="20" width="10" height="10" as="geometry" />
        </mxCell>
        <mxCell id="VurgTooAVVLOMVtPALt_-26" value="" style="endArrow=none;html=1;rounded=0;hachureGap=4;fontFamily=Architects Daughter;fontSource=https%3A%2F%2Ffonts.googleapis.com%2Fcss%3Ffamily%3DArchitects%2BDaughter;fontSize=16;exitX=1;exitY=0;exitDx=0;exitDy=0;entryX=0;entryY=0.5;entryDx=0;entryDy=0;" edge="1" parent="VurgTooAVVLOMVtPALt_-35" source="VurgTooAVVLOMVtPALt_-18" target="VurgTooAVVLOMVtPALt_-20">
          <mxGeometry width="50" height="50" relative="1" as="geometry">
            <mxPoint x="-30" y="60" as="sourcePoint" />
            <mxPoint x="20" as="targetPoint" />
          </mxGeometry>
        </mxCell>
        <mxCell id="VurgTooAVVLOMVtPALt_-27" value="" style="endArrow=none;html=1;rounded=0;hachureGap=4;fontFamily=Architects Daughter;fontSource=https%3A%2F%2Ffonts.googleapis.com%2Fcss%3Ffamily%3DArchitects%2BDaughter;fontSize=16;exitX=0.5;exitY=1;exitDx=0;exitDy=0;entryX=0;entryY=0;entryDx=0;entryDy=0;" edge="1" parent="VurgTooAVVLOMVtPALt_-35" source="VurgTooAVVLOMVtPALt_-18" target="VurgTooAVVLOMVtPALt_-23">
          <mxGeometry width="50" height="50" relative="1" as="geometry">
            <mxPoint x="9" y="20" as="sourcePoint" />
            <mxPoint x="20" y="14" as="targetPoint" />
          </mxGeometry>
        </mxCell>
        <mxCell id="VurgTooAVVLOMVtPALt_-28" value="" style="endArrow=none;html=1;rounded=0;hachureGap=4;fontFamily=Architects Daughter;fontSource=https%3A%2F%2Ffonts.googleapis.com%2Fcss%3Ffamily%3DArchitects%2BDaughter;fontSize=16;exitX=1;exitY=1;exitDx=0;exitDy=0;entryX=0;entryY=0;entryDx=0;entryDy=0;" edge="1" parent="VurgTooAVVLOMVtPALt_-35" source="VurgTooAVVLOMVtPALt_-20" target="VurgTooAVVLOMVtPALt_-22">
          <mxGeometry width="50" height="50" relative="1" as="geometry">
            <mxPoint x="29" y="10" as="sourcePoint" />
            <mxPoint x="40" y="4" as="targetPoint" />
          </mxGeometry>
        </mxCell>
        <mxCell id="VurgTooAVVLOMVtPALt_-29" value="" style="endArrow=none;html=1;rounded=0;hachureGap=4;fontFamily=Architects Daughter;fontSource=https%3A%2F%2Ffonts.googleapis.com%2Fcss%3Ffamily%3DArchitects%2BDaughter;fontSize=16;exitX=1;exitY=0;exitDx=0;exitDy=0;entryX=0;entryY=0;entryDx=0;entryDy=0;" edge="1" parent="VurgTooAVVLOMVtPALt_-35" source="VurgTooAVVLOMVtPALt_-20" target="VurgTooAVVLOMVtPALt_-21">
          <mxGeometry width="50" height="50" relative="1" as="geometry">
            <mxPoint x="60" y="10" as="sourcePoint" />
            <mxPoint x="72" y="22" as="targetPoint" />
          </mxGeometry>
        </mxCell>
        <mxCell id="VurgTooAVVLOMVtPALt_-30" value="" style="endArrow=none;html=1;rounded=0;hachureGap=4;fontFamily=Architects Daughter;fontSource=https%3A%2F%2Ffonts.googleapis.com%2Fcss%3Ffamily%3DArchitects%2BDaughter;fontSize=16;exitX=1;exitY=1;exitDx=0;exitDy=0;entryX=0;entryY=0;entryDx=0;entryDy=0;" edge="1" parent="VurgTooAVVLOMVtPALt_-35" source="VurgTooAVVLOMVtPALt_-21" target="VurgTooAVVLOMVtPALt_-24">
          <mxGeometry width="50" height="50" relative="1" as="geometry">
            <mxPoint x="100" y="19" as="sourcePoint" />
            <mxPoint x="122" y="19" as="targetPoint" />
          </mxGeometry>
        </mxCell>
        <mxCell id="VurgTooAVVLOMVtPALt_-31" value="" style="endArrow=none;html=1;rounded=0;hachureGap=4;fontFamily=Architects Daughter;fontSource=https%3A%2F%2Ffonts.googleapis.com%2Fcss%3Ffamily%3DArchitects%2BDaughter;fontSize=16;exitX=1;exitY=1;exitDx=0;exitDy=0;entryX=0;entryY=1;entryDx=0;entryDy=0;" edge="1" parent="VurgTooAVVLOMVtPALt_-35" source="VurgTooAVVLOMVtPALt_-23" target="VurgTooAVVLOMVtPALt_-24">
          <mxGeometry width="50" height="50" relative="1" as="geometry">
            <mxPoint x="27" y="40" as="sourcePoint" />
            <mxPoint x="49" y="40" as="targetPoint" />
          </mxGeometry>
        </mxCell>
        <mxCell id="VurgTooAVVLOMVtPALt_-32" value="" style="endArrow=none;html=1;rounded=0;hachureGap=4;fontFamily=Architects Daughter;fontSource=https%3A%2F%2Ffonts.googleapis.com%2Fcss%3Ffamily%3DArchitects%2BDaughter;fontSize=16;exitX=0;exitY=1;exitDx=0;exitDy=0;entryX=1;entryY=0.5;entryDx=0;entryDy=0;" edge="1" parent="VurgTooAVVLOMVtPALt_-35" source="VurgTooAVVLOMVtPALt_-22" target="VurgTooAVVLOMVtPALt_-23">
          <mxGeometry width="50" height="50" relative="1" as="geometry">
            <mxPoint x="29" y="49" as="sourcePoint" />
            <mxPoint x="81" y="49" as="targetPoint" />
          </mxGeometry>
        </mxCell>
        <mxCell id="VurgTooAVVLOMVtPALt_-33" value="" style="endArrow=none;html=1;rounded=0;hachureGap=4;fontFamily=Architects Daughter;fontSource=https%3A%2F%2Ffonts.googleapis.com%2Fcss%3Ffamily%3DArchitects%2BDaughter;fontSize=16;exitX=1;exitY=0.5;exitDx=0;exitDy=0;entryX=0;entryY=0.5;entryDx=0;entryDy=0;" edge="1" parent="VurgTooAVVLOMVtPALt_-35" source="VurgTooAVVLOMVtPALt_-22" target="VurgTooAVVLOMVtPALt_-24">
          <mxGeometry width="50" height="50" relative="1" as="geometry">
            <mxPoint x="50" y="38" as="sourcePoint" />
            <mxPoint x="30" y="45" as="targetPoint" />
          </mxGeometry>
        </mxCell>
        <mxCell id="VurgTooAVVLOMVtPALt_-34" value="" style="endArrow=none;html=1;rounded=0;hachureGap=4;fontFamily=Architects Daughter;fontSource=https%3A%2F%2Ffonts.googleapis.com%2Fcss%3Ffamily%3DArchitects%2BDaughter;fontSize=16;exitX=1;exitY=0;exitDx=0;exitDy=0;entryX=0;entryY=1;entryDx=0;entryDy=0;" edge="1" parent="VurgTooAVVLOMVtPALt_-35" source="VurgTooAVVLOMVtPALt_-22" target="VurgTooAVVLOMVtPALt_-21">
          <mxGeometry width="50" height="50" relative="1" as="geometry">
            <mxPoint x="50" y="38" as="sourcePoint" />
            <mxPoint x="30" y="45" as="targetPoint" />
          </mxGeometry>
        </mxCell>
        <mxCell id="VurgTooAVVLOMVtPALt_-36" value="user" style="text;html=1;strokeColor=none;fillColor=none;align=center;verticalAlign=middle;whiteSpace=wrap;rounded=0;fontSize=16;fontFamily=Tahoma;fontStyle=1;" vertex="1" parent="1">
          <mxGeometry x="160" y="164.7" width="80" height="30" as="geometry" />
        </mxCell>
        <mxCell id="VurgTooAVVLOMVtPALt_-37" value="Dusk" style="text;html=1;strokeColor=none;fillColor=none;align=center;verticalAlign=middle;whiteSpace=wrap;rounded=0;fontSize=16;fontFamily=Tahoma;fontStyle=1;" vertex="1" parent="1">
          <mxGeometry x="360" y="164.7" width="80" height="30" as="geometry" />
        </mxCell>
        <mxCell id="VurgTooAVVLOMVtPALt_-38" value="LP/SP" style="text;html=1;strokeColor=none;fillColor=none;align=center;verticalAlign=middle;whiteSpace=wrap;rounded=0;fontSize=16;fontFamily=Tahoma;fontStyle=1;" vertex="1" parent="1">
          <mxGeometry x="560" y="164.7" width="80" height="30" as="geometry" />
        </mxCell>
        <mxCell id="VurgTooAVVLOMVtPALt_-40" value="" style="verticalLabelPosition=bottom;aspect=fixed;html=1;shape=mxgraph.salesforce.data;hachureGap=4;fontFamily=Architects Daughter;fontSource=https%3A%2F%2Ffonts.googleapis.com%2Fcss%3Ffamily%3DArchitects%2BDaughter;fontSize=20;fillColor=#FFB570;strokeColor=#ff7800;" vertex="1" parent="1">
          <mxGeometry x="608" y="135.31" width="20" height="24.69" as="geometry" />
        </mxCell>
        <mxCell id="VurgTooAVVLOMVtPALt_-41" value="&lt;font style=&quot;font-size: 13px;&quot;&gt;&lt;font style=&quot;font-size: 13px;&quot;&gt;(1) request_license&lt;/font&gt;&lt;br style=&quot;font-size: 13px;&quot;&gt;&lt;/font&gt;" style="text;html=1;strokeColor=none;fillColor=none;align=center;verticalAlign=bottom;whiteSpace=wrap;rounded=0;fontSize=13;fontFamily=Courier New;fontStyle=1" vertex="1" parent="1">
          <mxGeometry x="200" y="210" width="200" height="30" as="geometry" />
        </mxCell>
        <mxCell id="VurgTooAVVLOMVtPALt_-42" value="&lt;font style=&quot;font-size: 13px;&quot;&gt;&lt;font style=&quot;font-size: 13px;&quot;&gt;(4) get_license&lt;/font&gt;&lt;br style=&quot;font-size: 13px;&quot;&gt;&lt;/font&gt;" style="text;html=1;strokeColor=none;fillColor=none;align=center;verticalAlign=bottom;whiteSpace=wrap;rounded=0;fontSize=13;fontFamily=Courier New;fontStyle=1" vertex="1" parent="1">
          <mxGeometry x="200" y="330" width="200" height="30" as="geometry" />
        </mxCell>
        <mxCell id="VurgTooAVVLOMVtPALt_-43" value="&lt;font style=&quot;font-size: 13px;&quot;&gt;&lt;font style=&quot;font-size: 13px;&quot;&gt;(5) use_license&lt;/font&gt;&lt;br style=&quot;font-size: 13px;&quot;&gt;&lt;/font&gt;" style="text;html=1;strokeColor=none;fillColor=none;align=center;verticalAlign=bottom;whiteSpace=wrap;rounded=0;fontSize=13;fontFamily=Courier New;fontStyle=1" vertex="1" parent="1">
          <mxGeometry x="200" y="370" width="200" height="30" as="geometry" />
        </mxCell>
        <mxCell id="VurgTooAVVLOMVtPALt_-44" value="&lt;font style=&quot;font-size: 13px;&quot;&gt;&lt;font style=&quot;font-size: 13px;&quot;&gt;(6) request_service&lt;/font&gt;&lt;br style=&quot;font-size: 13px;&quot;&gt;&lt;/font&gt;" style="text;html=1;strokeColor=none;fillColor=none;align=center;verticalAlign=bottom;whiteSpace=wrap;rounded=0;fontSize=13;fontFamily=Courier New;fontStyle=1" vertex="1" parent="1">
          <mxGeometry x="300" y="410" width="200" height="30" as="geometry" />
        </mxCell>
        <mxCell id="VurgTooAVVLOMVtPALt_-45" value="&lt;font style=&quot;font-size: 13px;&quot;&gt;&lt;font style=&quot;font-size: 13px;&quot;&gt;(7) get_session&lt;/font&gt;&lt;br style=&quot;font-size: 13px;&quot;&gt;&lt;/font&gt;" style="text;html=1;strokeColor=none;fillColor=none;align=center;verticalAlign=bottom;whiteSpace=wrap;rounded=0;fontSize=13;fontFamily=Courier New;fontStyle=1" vertex="1" parent="1">
          <mxGeometry x="400" y="450" width="200" height="30" as="geometry" />
        </mxCell>
        <mxCell id="VurgTooAVVLOMVtPALt_-46" value="&lt;font style=&quot;font-size: 13px;&quot;&gt;&lt;font style=&quot;font-size: 13px;&quot;&gt;(3) issue_license&lt;/font&gt;&lt;br style=&quot;font-size: 13px;&quot;&gt;&lt;/font&gt;" style="text;html=1;strokeColor=none;fillColor=none;align=center;verticalAlign=bottom;whiteSpace=wrap;rounded=0;fontSize=13;fontFamily=Courier New;fontStyle=1" vertex="1" parent="1">
          <mxGeometry x="400" y="290" width="200" height="30" as="geometry" />
        </mxCell>
        <mxCell id="VurgTooAVVLOMVtPALt_-47" value="&lt;font style=&quot;font-size: 13px;&quot;&gt;&lt;font style=&quot;font-size: 13px;&quot;&gt;(2) get_license_request&lt;/font&gt;&lt;br style=&quot;font-size: 13px;&quot;&gt;&lt;/font&gt;" style="text;html=1;strokeColor=none;fillColor=none;align=center;verticalAlign=bottom;whiteSpace=wrap;rounded=0;fontSize=13;fontFamily=Courier New;fontStyle=1" vertex="1" parent="1">
          <mxGeometry x="400" y="250" width="200" height="30" as="geometry" />
        </mxCell>
        <mxCell id="VurgTooAVVLOMVtPALt_-48" value="&lt;font style=&quot;font-size: 13px;&quot;&gt;&lt;font style=&quot;font-size: 13px;&quot;&gt;(8) grant_service&lt;/font&gt;&lt;br style=&quot;font-size: 13px;&quot;&gt;&lt;/font&gt;" style="text;html=1;strokeColor=none;fillColor=none;align=center;verticalAlign=bottom;whiteSpace=wrap;rounded=0;fontSize=13;fontFamily=Courier New;fontStyle=1" vertex="1" parent="1">
          <mxGeometry x="300" y="490" width="200" height="30" as="geometry" />
        </mxCell>
      </root>
    </mxGraphModel>
  </diagram>
</mxfile>
